<svg height="128.5996036529541" viewBox="7.89109992980957 9.911703109741211 229.06869316101074 128.5996036529541" width="229.06869316101074" xmlns="http://www.w3.org/2000/svg" xmlns:xlink="http://www.w3.org/1999/xlink">
<path d="M 20.140625 45.871094 L 30.53125 41.851562 C 32.609375 49.445312 34.105469 56.644531 35.015625 63.441406 C 35.152344 63.414062 35.582031 62.492188 36.316406 60.660156 L 37.453125 57.824219 C 38.644531 54.808594 41.339844 49.296875 45.542969 41.277344 L 46.679688 40.96875 C 48.828125 40.371094 51.292969 39.765625 54.0625 39.144531 C 51.539062 44.015625 48.886719 49.761719 46.097656 56.382812 C 45.09375 58.757812 43.617188 63.238281 41.675781 69.828125 C 41.128906 71.601562 40.101562 75.140625 38.589844 80.445312 L 27.828125 84.769531 C 27.910156 84.359375 27.953125 83.761719 27.949219 82.972656 C 27.941406 79.027344 27.429688 73.886719 26.414062 67.558594 C 26.027344 65.074219 25.699219 63.851562 25.429688 63.894531 L 21.691406 73.160156 C 19.988281 77.371094 18.972656 81.222656 18.652344 84.722656 L 7.890625 89.078125 C 9.136719 84.398438 10.542969 79.628906 12.109375 74.757812 C 13.300781 71.0625 15.074219 66.527344 17.433594 61.164062 C 18.460938 58.78125 19.894531 55.777344 21.738281 52.15625 C 21.847656 51.820312 21.902344 51.554688 21.898438 51.339844 C 21.898438 50.734375 21.65625 49.828125 21.160156 48.621094 C 20.5625 47.039062 20.222656 46.125 20.140625 45.871094 " fill="rgb(87.509155%, 11.482239%, 14.46228%)" fill-opacity="1" fill-rule="nonzero"/>
<path d="M 70.140625 45.265625 C 69.167969 46.742188 67.132812 50.265625 64.042969 55.835938 L 61.519531 60.4375 L 67.265625 59.359375 L 68.574219 60.125 C 69.660156 57.660156 70.195312 53.332031 70.183594 47.152344 C 70.183594 46.230469 70.171875 45.597656 70.140625 45.265625 M 67.238281 65.5625 L 58.636719 67.390625 C 56.875 70.425781 55.261719 74.242188 53.800781 78.855469 L 43.039062 83.210938 C 43.339844 82.035156 44.734375 78.804688 47.226562 73.519531 L 49.78125 68 C 52.226562 62.800781 56.046875 56.257812 61.257812 48.367188 C 64.105469 44.023438 66.925781 40.117188 69.722656 36.652344 C 71.375 36.324219 73.824219 35.808594 77.058594 35.113281 L 77.308594 38.582031 C 77.476562 41.210938 77.5625 43.75 77.566406 46.195312 C 77.574219 51.007812 77.214844 55.554688 76.488281 59.835938 C 76.246094 60.582031 75.679688 63.664062 74.792969 69.078125 C 74.4375 71.320312 74.085938 73.15625 73.734375 74.578125 L 62.976562 78.902344 C 63.734375 76.40625 65.152344 71.960938 67.238281 65.5625 " fill="rgb(87.509155%, 11.482239%, 14.46228%)" fill-opacity="1" fill-rule="nonzero"/>
<path d="M 109.167969 68.664062 L 98.40625 72.988281 C 98.679688 71.757812 98.8125 70.527344 98.808594 69.289062 C 98.804688 67 98.351562 64.90625 97.453125 63.003906 C 96.390625 60.679688 94.90625 59.324219 93.003906 58.933594 L 92.269531 61.382812 C 91.675781 63.375 90.664062 67.230469 89.230469 72.941406 L 78.46875 77.300781 C 79.6875 72.707031 81.09375 67.929688 82.6875 62.980469 C 83.90625 59.226562 85.679688 54.695312 88.011719 49.382812 C 89.800781 45.300781 92.523438 39.78125 96.179688 32.828125 L 97.285156 32.523438 C 99.429688 31.929688 101.90625 31.320312 104.699219 30.695312 C 102.722656 34.523438 100.070312 40.269531 96.734375 47.929688 C 96.65625 48.097656 96.347656 48.902344 95.800781 50.335938 C 101.074219 47.296875 106.121094 42.863281 110.953125 37.03125 C 113.09375 34.4375 114.816406 31.925781 116.117188 29.496094 L 117.261719 29.191406 C 119.40625 28.59375 121.867188 27.984375 124.644531 27.367188 C 121.933594 33.816406 117.292969 40.222656 110.722656 46.582031 C 107.382812 49.820312 103.839844 52.414062 100.089844 54.355469 C 102.511719 55.136719 104.664062 56.683594 106.542969 59.003906 C 108.503906 61.4375 109.484375 63.921875 109.488281 66.441406 C 109.492188 67.128906 109.386719 67.867188 109.167969 68.664062 " fill="rgb(87.509155%, 11.482239%, 14.46228%)" fill-opacity="1" fill-rule="nonzero"/>
<path d="M 158.726562 21.679688 L 156.128906 30.042969 L 152.828125 30.589844 C 146.710938 31.613281 141.925781 32.5625 138.472656 33.425781 L 140.273438 34.121094 C 139.972656 34.777344 139.273438 36.480469 138.15625 39.230469 C 137.863281 39.941406 137.523438 40.777344 137.144531 41.738281 L 149.375 39.261719 L 146.820312 46.914062 L 134.757812 49.277344 C 133.894531 51.925781 132.933594 55.257812 131.878906 59.277344 C 135.167969 58.542969 140.082031 57.484375 146.628906 56.101562 L 143.949219 64.480469 C 142.238281 64.765625 140.753906 65.015625 139.507812 65.222656 L 137.835938 65.5 C 133.675781 66.195312 127.5625 67.847656 119.492188 70.457031 L 119.492188 70.375 C 119.492188 70.113281 119.988281 68.175781 120.992188 64.5625 C 122.152344 60.398438 123.191406 56.972656 124.113281 54.292969 C 125.65625 49.851562 127.417969 45.324219 129.394531 40.699219 C 130.15625 38.96875 131.003906 37.15625 131.953125 35.261719 C 129.941406 35.808594 128.070312 36.335938 126.328125 36.835938 L 128.800781 28.136719 C 132.742188 27.1875 137.445312 26.101562 142.910156 24.867188 C 146.167969 24.152344 151.445312 23.085938 158.726562 21.679688 " fill="rgb(87.509155%, 11.482239%, 14.46228%)" fill-opacity="1" fill-rule="nonzero"/>
<path d="M 172.253906 36.429688 L 166.726562 51.996094 C 171.429688 50.160156 175.761719 46.933594 179.722656 42.324219 C 182.929688 38.582031 184.527344 34.972656 184.519531 31.5 C 184.515625 28 183.816406 26.132812 182.429688 25.890625 C 180.824219 25.605469 179.523438 25.558594 178.515625 25.753906 C 175.90625 26.296875 173.84375 26.90625 172.320312 27.578125 L 175.5 28.625 C 175.230469 29.144531 174.527344 30.695312 173.394531 33.28125 C 173.179688 33.898438 172.796875 34.949219 172.253906 36.429688 M 166.339844 60.464844 L 164.214844 61.453125 C 160.847656 62.460938 157.667969 63.285156 154.679688 63.914062 C 155.136719 62.546875 156.375 58.796875 158.398438 52.667969 C 159.398438 49.636719 160.933594 45.09375 162.996094 39.039062 C 163.890625 36.574219 165.339844 33.332031 167.347656 29.316406 C 166.722656 29.816406 165.867188 30.414062 164.78125 31.125 L 162.683594 22.082031 C 167.550781 20.558594 171.746094 19.503906 175.285156 18.914062 C 176.097656 18.777344 177.023438 18.679688 178.054688 18.609375 C 180.855469 18.332031 182.460938 18.195312 182.863281 18.199219 C 184.335938 18.167969 185.980469 18.378906 187.804688 18.835938 C 191.773438 19.78125 193.765625 22.183594 193.769531 26.050781 C 193.773438 26.789062 193.691406 27.511719 193.527344 28.222656 C 191.945312 41.855469 182.882812 52.601562 166.339844 60.464844 " fill="rgb(87.509155%, 11.482239%, 14.46228%)" fill-opacity="1" fill-rule="nonzero"/>
<path d="M 220.300781 26.554688 C 223.828125 24.28125 225.59375 22.082031 225.589844 19.953125 C 225.589844 19.03125 225.25 18.273438 224.570312 17.675781 C 223.886719 17.074219 223.070312 16.765625 222.117188 16.742188 C 221.683594 16.707031 221.398438 16.703125 221.265625 16.726562 C 219.820312 16.96875 218.316406 18.492188 216.746094 21.3125 Z M 223.347656 43.964844 L 216.765625 34.570312 C 216.683594 34.503906 216.613281 34.472656 216.558594 34.480469 C 216.453125 34.527344 216.273438 34.609375 216.03125 34.730469 L 215.585938 34.960938 C 213.867188 35.558594 212.199219 37.3125 210.574219 40.214844 C 209.867188 41.46875 209.4375 42.527344 209.277344 43.394531 C 209.277344 45.632812 211.070312 46.84375 214.664062 47.035156 C 215.234375 47.070312 216.09375 46.992188 217.238281 46.804688 C 220.496094 46.257812 222.535156 45.316406 223.347656 43.964844 M 232.542969 44.710938 L 236.089844 49.847656 L 229.15625 53.023438 L 226.453125 48.972656 C 223.46875 50.605469 220.382812 51.683594 217.203125 52.210938 C 211.003906 53.25 206.707031 52.425781 204.3125 49.75 C 203.355469 48.671875 202.875 47.328125 202.875 45.726562 C 202.875 44.121094 203.441406 42.121094 204.578125 39.71875 C 206.828125 35.027344 210.019531 31.824219 214.148438 30.105469 C 211.585938 27.644531 210.308594 25.148438 210.296875 22.621094 C 210.296875 21.488281 210.597656 20.425781 211.195312 19.433594 C 214.5 13.960938 218.441406 10.84375 223.007812 10.078125 C 225.75 9.910156 228.160156 11.394531 230.234375 14.519531 C 231.269531 16.085938 231.804688 17.929688 231.832031 20.058594 C 231.863281 21.527344 230.734375 23.527344 228.453125 26.070312 C 226.605469 28.167969 224.796875 29.828125 223.027344 31.039062 L 229.277344 39.886719 C 230.40625 38.335938 230.980469 36.851562 230.972656 35.433594 L 236.960938 37.625 C 236.421875 39.398438 235.917969 40.703125 235.464844 41.539062 C 234.679688 43.015625 233.703125 44.070312 232.542969 44.710938 " fill="rgb(87.509155%, 11.482239%, 14.46228%)" fill-opacity="1" fill-rule="nonzero"/>
<path d="M 22.238281 135.28125 C 19.113281 136.117188 15.570312 137.195312 11.601562 138.511719 L 11.601562 138.433594 C 11.601562 138.171875 12.097656 136.234375 13.101562 132.621094 C 14.265625 128.453125 15.304688 125.03125 16.226562 122.347656 C 17.769531 117.910156 19.527344 113.382812 21.507812 108.761719 C 22.261719 107.03125 23.113281 105.21875 24.066406 103.320312 C 22.054688 103.867188 20.179688 104.390625 18.4375 104.890625 L 20.914062 96.199219 C 24.855469 95.246094 29.558594 94.15625 35.019531 92.929688 C 38.28125 92.214844 43.554688 91.148438 50.839844 89.734375 L 48.246094 98.101562 L 44.941406 98.652344 C 38.820312 99.675781 34.039062 100.617188 30.585938 101.484375 L 32.382812 102.175781 C 32.085938 102.832031 31.382812 104.539062 30.269531 107.285156 C 29.976562 107.996094 29.636719 108.832031 29.253906 109.796875 L 41.488281 107.320312 L 38.933594 114.96875 L 26.859375 117.378906 C 26.429688 118.792969 26.078125 119.894531 25.804688 120.703125 C 24.101562 125.746094 22.914062 130.601562 22.238281 135.28125 " fill="rgb(87.509155%, 11.482239%, 14.46228%)" fill-opacity="1" fill-rule="nonzero"/>
<path d="M 61.988281 96.675781 C 61.007812 98.15625 58.976562 101.679688 55.886719 107.242188 L 53.363281 111.847656 L 59.113281 110.777344 L 60.421875 111.539062 C 61.503906 109.070312 62.039062 104.742188 62.03125 98.566406 C 62.027344 97.640625 62.011719 97.015625 61.988281 96.675781 M 59.082031 116.972656 L 50.480469 118.804688 C 48.71875 121.835938 47.105469 125.65625 45.644531 130.265625 L 34.882812 134.628906 C 35.183594 133.449219 36.578125 130.214844 39.070312 124.929688 L 41.628906 119.410156 C 44.066406 114.21875 47.894531 107.671875 53.097656 99.777344 C 55.949219 95.4375 58.773438 91.53125 61.5625 88.0625 C 63.21875 87.734375 65.664062 87.21875 68.902344 86.527344 L 69.152344 89.992188 C 69.320312 92.625 69.40625 95.164062 69.410156 97.609375 C 69.417969 102.421875 69.054688 106.96875 68.332031 111.246094 C 68.085938 111.996094 67.519531 115.078125 66.632812 120.488281 C 66.28125 122.734375 65.933594 124.566406 65.582031 125.992188 L 54.820312 130.316406 C 55.574219 127.820312 56.996094 123.375 59.082031 116.972656 " fill="rgb(87.509155%, 11.482239%, 14.46228%)" fill-opacity="1" fill-rule="nonzero"/>
<path d="M 130.789062 72.488281 L 125.808594 93.40625 C 125.699219 93.871094 125.214844 95.980469 124.351562 99.726562 L 122.449219 108.054688 C 121.6875 111.367188 121.027344 114.605469 120.464844 117.777344 L 107.464844 123.382812 C 108.378906 119.914062 109.800781 115.140625 111.71875 109.054688 C 112.316406 107.25 113.273438 104.046875 114.601562 99.457031 C 115.222656 97.328125 116.160156 94.5 117.402344 90.980469 C 115.011719 92.195312 111.347656 97.25 106.417969 106.152344 C 104.566406 109.488281 102.785156 114.128906 101.054688 120.070312 L 90.292969 124.394531 C 90.375 123.988281 90.414062 123.386719 90.414062 122.597656 C 90.40625 118.652344 89.894531 113.515625 88.878906 107.1875 C 88.492188 104.695312 88.164062 103.476562 87.894531 103.523438 L 84.15625 112.789062 C 82.453125 116.992188 81.4375 120.847656 81.117188 124.347656 L 70.355469 128.707031 C 71.601562 124.027344 73.007812 119.253906 74.574219 114.390625 C 75.765625 110.691406 77.539062 106.15625 79.894531 100.792969 C 80.925781 98.410156 82.363281 95.40625 84.207031 91.78125 C 84.3125 91.449219 84.363281 91.175781 84.363281 90.96875 C 84.363281 90.363281 84.121094 89.457031 83.628906 88.25 C 83.027344 86.664062 82.6875 85.75 82.601562 85.5 L 93 81.480469 C 94.253906 85.320312 95.359375 88.871094 96.320312 92.128906 C 97.683594 96.792969 98.425781 100.855469 98.539062 104.308594 C 102.195312 96.304688 106.929688 89.070312 112.738281 82.605469 C 115.265625 79.789062 117.554688 77.667969 119.621094 76.246094 C 120.625 76.023438 122.023438 75.566406 123.820312 74.871094 C 126.152344 73.957031 127.585938 73.414062 128.101562 73.25 C 129.074219 72.929688 129.976562 72.675781 130.789062 72.488281 " fill="rgb(87.509155%, 11.482239%, 14.46228%)" fill-opacity="1" fill-rule="nonzero"/>
<path d="M 160.476562 92.988281 C 160.636719 92.175781 160.714844 91.527344 160.714844 91.050781 C 160.714844 88.921875 160.046875 87.402344 158.710938 86.496094 L 160.460938 85.253906 C 158.929688 82.457031 156.332031 81.367188 152.652344 81.980469 C 148.921875 82.605469 145.804688 84.292969 143.304688 87.050781 C 140.964844 89.652344 139.507812 92.828125 138.945312 96.582031 C 138.8125 97.445312 138.746094 98.167969 138.746094 98.746094 C 138.75 101.507812 139.585938 103.722656 141.25 105.390625 C 143.019531 107.175781 145.296875 107.832031 148.078125 107.371094 C 151.425781 106.808594 154.242188 105.066406 156.527344 102.132812 C 158.539062 99.535156 159.855469 96.484375 160.476562 92.988281 M 171.789062 78.078125 L 169.34375 80.066406 C 170.136719 82.140625 170.53125 83.96875 170.535156 85.546875 C 170.539062 86.675781 170.363281 88.285156 170.011719 90.371094 C 168.878906 96.976562 166.433594 102.492188 162.65625 106.910156 C 158.53125 111.757812 153.25 114.71875 146.808594 115.789062 C 141.5625 116.664062 137.457031 115.589844 134.484375 112.558594 C 131.761719 109.753906 130.398438 105.757812 130.386719 100.574219 C 130.386719 99.445312 130.453125 98.234375 130.589844 96.953125 C 131.253906 91.289062 133.765625 86.082031 138.109375 81.332031 C 142.554688 76.484375 147.648438 73.582031 153.386719 72.625 C 162.054688 71.175781 168.191406 72.996094 171.789062 78.078125 " fill="rgb(87.509155%, 11.482239%, 14.46228%)" fill-opacity="1" fill-rule="nonzero"/>
<path d="M 214.667969 62.398438 C 213.9375 64.230469 212.679688 68.078125 210.894531 73.957031 C 209.109375 79.835938 207.742188 84.183594 206.792969 86.996094 C 204.117188 94.78125 201.050781 100.371094 197.605469 103.761719 C 194.699219 106.613281 190.925781 108.429688 186.277344 109.203125 C 183.941406 109.59375 181.609375 109.179688 179.300781 107.960938 C 175.980469 106.175781 174.316406 103.019531 174.308594 98.492188 C 174.304688 96.628906 174.589844 94.554688 175.15625 92.273438 C 176.9375 85.164062 179.753906 77.285156 183.597656 68.644531 L 192.894531 66.027344 C 190.835938 71.160156 189.511719 74.511719 188.914062 76.085938 C 186.613281 82.125 185.015625 87.023438 184.121094 90.773438 C 183.804688 92.175781 183.640625 93.527344 183.644531 94.84375 C 183.648438 98.867188 185.148438 100.632812 188.136719 100.132812 C 191.535156 99.5625 194.519531 95.726562 197.089844 88.609375 L 205.980469 63.847656 Z M 214.667969 62.398438 " fill="rgb(87.509155%, 11.482239%, 14.46228%)" fill-opacity="1" fill-rule="nonzero"/>
<path d="M 236.820312 66.867188 C 235.273438 67.179688 233.9375 67.542969 232.824219 67.964844 C 230.027344 69.066406 228.042969 70.503906 226.878906 72.277344 C 226.472656 72.894531 226.269531 73.496094 226.269531 74.074219 C 226.269531 75.074219 226.816406 76.234375 227.90625 77.554688 C 229.347656 79.335938 230.179688 80.445312 230.402344 80.882812 C 231.734375 83.632812 232.40625 85.851562 232.410156 87.535156 L 232.410156 88.203125 C 232.007812 92.429688 229.554688 96.363281 225.046875 100.007812 C 222.578125 102.027344 218.609375 104.152344 213.144531 106.375 L 211.132812 96.492188 C 213.199219 95.886719 215.058594 95.164062 216.71875 94.332031 C 220.628906 92.394531 222.582031 90.328125 222.578125 88.148438 L 222.578125 87.792969 C 222.578125 86.6875 222.21875 85.507812 221.511719 84.261719 C 221.105469 83.75 220.394531 82.816406 219.386719 81.457031 C 217.617188 79.046875 216.726562 76.835938 216.726562 74.835938 C 216.722656 70.578125 218.359375 67.242188 221.644531 64.820312 C 224.171875 62.980469 227.972656 61.019531 233.054688 58.933594 Z M 236.820312 66.867188 " fill="rgb(87.509155%, 11.482239%, 14.46228%)" fill-opacity="1" fill-rule="nonzero"/>
<path d="M 160.371094 127.429688 L 158.34375 132.707031 C 160.0625 132.328125 161.648438 131.429688 163.097656 130.007812 C 164.269531 128.851562 164.859375 127.644531 164.859375 126.394531 C 164.859375 125.128906 164.605469 124.414062 164.101562 124.246094 C 163.511719 124.046875 163.03125 123.953125 162.671875 123.957031 C 161.714844 123.996094 160.957031 124.09375 160.402344 124.246094 L 161.566406 124.8125 C 161.464844 124.984375 161.210938 125.503906 160.792969 126.363281 C 160.714844 126.574219 160.574219 126.929688 160.371094 127.429688 M 158.199219 135.742188 L 157.421875 135.96875 C 156.1875 136.128906 155.027344 136.234375 153.933594 136.28125 C 154.101562 135.816406 154.558594 134.542969 155.296875 132.453125 C 155.667969 131.417969 156.230469 129.871094 156.988281 127.816406 C 157.316406 126.980469 157.847656 125.902344 158.585938 124.574219 C 158.351562 124.714844 158.039062 124.878906 157.644531 125.070312 L 156.882812 121.6875 C 158.664062 121.425781 160.199219 121.296875 161.488281 121.296875 C 161.785156 121.296875 162.128906 121.320312 162.503906 121.355469 C 163.527344 121.425781 164.117188 121.472656 164.261719 121.496094 C 164.800781 121.578125 165.398438 121.75 166.066406 122.023438 C 167.515625 122.605469 168.242188 123.589844 168.242188 124.984375 C 168.242188 125.25 168.214844 125.503906 168.15625 125.75 C 167.566406 130.570312 164.25 133.902344 158.199219 135.742188 " fill="rgb(87.509155%, 11.482239%, 14.46228%)" fill-opacity="1" fill-rule="nonzero"/>
<path d="M 184.171875 121.296875 L 183.21875 124.15625 L 182.007812 124.15625 C 179.773438 124.15625 178.027344 124.210938 176.761719 124.316406 L 177.417969 124.675781 C 177.3125 124.894531 177.050781 125.464844 176.640625 126.390625 C 176.53125 126.628906 176.40625 126.90625 176.269531 127.234375 L 180.738281 127.074219 L 179.804688 129.679688 L 175.394531 129.804688 C 175.074219 130.707031 174.726562 131.851562 174.335938 133.238281 C 175.539062 133.171875 177.335938 133.082031 179.730469 132.980469 L 178.746094 135.839844 L 176.511719 135.839844 C 174.988281 135.839844 172.75 136.066406 169.804688 136.523438 L 169.804688 136.496094 C 169.804688 136.398438 169.984375 135.730469 170.355469 134.488281 C 170.78125 133.054688 171.160156 131.882812 171.5 130.972656 C 172.066406 129.46875 172.714844 127.9375 173.4375 126.394531 C 173.714844 125.8125 174.027344 125.210938 174.378906 124.585938 C 173.644531 124.664062 172.953125 124.734375 172.320312 124.8125 L 173.230469 121.828125 C 174.671875 121.722656 176.390625 121.613281 178.386719 121.496094 C 179.578125 121.4375 181.507812 121.371094 184.171875 121.296875 " fill="rgb(87.509155%, 11.482239%, 14.46228%)" fill-opacity="1" fill-rule="nonzero"/>
<path d="M 187.953125 121.683594 L 191.75 120.855469 C 192.507812 123.722656 193.046875 126.410156 193.375 128.914062 C 193.425781 128.914062 193.582031 128.601562 193.851562 127.984375 L 194.269531 127.03125 C 194.707031 126.015625 195.695312 124.191406 197.238281 121.554688 L 197.652344 121.511719 C 198.433594 121.425781 199.339844 121.355469 200.347656 121.296875 C 199.425781 122.902344 198.453125 124.8125 197.429688 127.03125 C 197.058594 127.828125 196.519531 129.359375 195.804688 131.613281 C 195.601562 132.222656 195.226562 133.433594 194.671875 135.253906 L 190.734375 136.167969 C 190.765625 136.027344 190.78125 135.8125 190.78125 135.527344 C 190.78125 134.101562 190.597656 132.222656 190.230469 129.878906 C 190.089844 128.957031 189.972656 128.5 189.875 128.5 L 188.5 131.613281 C 187.871094 133.023438 187.5 134.355469 187.382812 135.597656 L 183.445312 136.523438 C 183.90625 134.910156 184.421875 133.273438 184.996094 131.613281 C 185.433594 130.355469 186.082031 128.824219 186.949219 127.03125 C 187.328125 126.238281 187.855469 125.238281 188.53125 124.046875 C 188.566406 123.929688 188.589844 123.832031 188.589844 123.761719 C 188.589844 123.539062 188.5 123.199219 188.320312 122.738281 C 188.101562 122.128906 187.980469 121.78125 187.953125 121.683594 " fill="rgb(87.509155%, 11.482239%, 14.46228%)" fill-opacity="1" fill-rule="nonzero"/>
<path d="M 202.773438 133.675781 L 203.128906 132.554688 C 203.210938 132.292969 203.382812 131.769531 203.652344 130.972656 C 204.070312 129.789062 204.722656 128.261719 205.621094 126.394531 C 205.839844 125.910156 206.183594 125.222656 206.664062 124.332031 C 205.90625 124.445312 204.765625 124.605469 203.238281 124.8125 L 204.144531 121.839844 C 205.226562 121.742188 206.59375 121.636719 208.242188 121.515625 C 209.964844 121.390625 211.46875 121.320312 212.773438 121.296875 L 211.820312 124.15625 C 210.492188 124.15625 209.433594 124.171875 208.664062 124.199219 L 209.570312 124.671875 C 209.363281 125.054688 209.101562 125.621094 208.777344 126.382812 C 208.378906 127.3125 207.835938 128.84375 207.136719 130.972656 C 206.890625 131.761719 206.648438 132.578125 206.421875 133.421875 C 206.640625 133.414062 207.027344 133.390625 207.574219 133.367188 L 209.183594 133.308594 L 208.230469 136.195312 C 206.609375 136.195312 205.554688 136.207031 205.070312 136.238281 C 204.273438 136.285156 202.46875 136.488281 199.640625 136.835938 L 200.550781 133.863281 L 201.59375 133.765625 C 201.894531 133.746094 202.289062 133.714844 202.773438 133.675781 " fill="rgb(87.509155%, 11.482239%, 14.46228%)" fill-opacity="1" fill-rule="nonzero"/>
<path d="M 234.46875 119.890625 L 232.640625 127.128906 C 232.597656 127.296875 232.417969 128.027344 232.101562 129.324219 L 231.40625 132.210938 C 231.125 133.359375 230.878906 134.488281 230.671875 135.597656 L 225.914062 136.835938 C 226.253906 135.636719 226.773438 134.003906 227.484375 131.925781 C 227.699219 131.3125 228.050781 130.214844 228.539062 128.644531 C 228.765625 127.910156 229.109375 126.949219 229.570312 125.75 C 228.695312 126.046875 227.351562 127.648438 225.542969 130.5625 C 224.863281 131.65625 224.210938 133.214844 223.574219 135.253906 L 219.640625 136.167969 C 219.667969 136.027344 219.683594 135.8125 219.683594 135.527344 C 219.683594 134.101562 219.5 132.222656 219.132812 129.878906 C 218.996094 128.960938 218.875 128.5 218.777344 128.5 L 217.402344 131.613281 C 216.777344 133.023438 216.40625 134.355469 216.285156 135.597656 L 212.351562 136.523438 C 212.808594 134.910156 213.324219 133.273438 213.902344 131.613281 C 214.335938 130.355469 214.988281 128.824219 215.855469 127.03125 C 216.230469 126.238281 216.753906 125.238281 217.433594 124.046875 C 217.472656 123.929688 217.492188 123.832031 217.492188 123.761719 C 217.492188 123.542969 217.402344 123.199219 217.222656 122.738281 C 217.003906 122.128906 216.878906 121.78125 216.851562 121.6875 L 220.652344 120.855469 C 221.113281 122.320312 221.511719 123.667969 221.859375 124.898438 C 222.355469 126.660156 222.625 128.171875 222.664062 129.421875 C 224.003906 126.757812 225.742188 124.433594 227.867188 122.453125 C 228.789062 121.589844 229.628906 120.964844 230.386719 120.570312 C 230.753906 120.550781 231.265625 120.472656 231.925781 120.328125 C 232.777344 120.140625 233.300781 120.035156 233.488281 120.003906 C 233.847656 119.945312 234.171875 119.910156 234.46875 119.890625 " fill="rgb(87.509155%, 11.482239%, 14.46228%)" fill-opacity="1" fill-rule="nonzero"/>
</svg>